<svg version="1.1" id="Layer_1" xmlns="http://www.w3.org/2000/svg" xmlns:xlink="http://www.w3.org/1999/xlink" x="0px" y="0px"
	 width="100%" viewBox="0 0 2048 2048" enable-background="new 0 0 2048 2048" xml:space="preserve">
<path fill="#66D9FF" opacity="1.000000" stroke="none" 
	d="
M504.348877,934.263428 
	C504.587860,912.831543 503.862274,891.793335 505.429749,870.927246 
	C507.416504,844.480591 512.728516,818.479553 520.418762,793.000549 
	C529.694214,762.269775 542.633911,733.203979 559.014893,705.633728 
	C584.811035,662.217346 617.571655,625.097900 658.214783,594.934021 
	C697.963867,565.433655 741.454346,543.635193 789.542175,531.858643 
	C809.546631,526.959656 830.081055,523.937622 850.529968,521.241089 
	C864.160706,519.443604 878.066101,519.196716 891.848755,519.194214 
	C920.317322,519.188965 948.294250,523.331970 975.958679,530.081421 
	C1007.126160,537.685608 1036.754761,549.126770 1064.709839,564.772522 
	C1091.513428,579.773865 1116.006104,597.878357 1136.908203,620.571594 
	C1137.359863,621.061829 1137.827271,621.537354 1138.289673,622.017456 
	C1146.426636,630.465759 1146.266602,630.441284 1136.082886,636.657166 
	C1107.737671,653.958313 1079.497925,671.432251 1051.246826,688.886780 
	C1041.775024,694.738831 1032.261597,700.541870 1023.037231,706.767090 
	C1019.378174,709.236450 1017.093872,707.428772 1014.664429,705.475769 
	C1001.493042,694.887451 986.892212,686.726562 971.423523,680.104736 
	C939.917908,666.617798 907.089783,660.715576 872.758179,662.116394 
	C854.306885,662.869263 836.293823,665.916931 818.788452,671.086853 
	C788.594360,680.004089 760.915100,694.046082 736.100220,713.828308 
	C698.768250,743.589172 671.554321,780.570618 655.246643,825.333740 
	C646.033691,850.622620 641.611206,876.947693 641.069580,903.947266 
	C640.650269,924.851318 642.196289,945.557983 647.009644,965.858154 
	C659.161377,1017.107910 684.648560,1060.432739 726.235474,1093.221924 
	C742.592590,1106.118652 760.600281,1116.921143 777.844299,1128.694946 
	C779.422607,1129.772583 780.912903,1130.979370 783.045715,1132.576782 
	C780.546875,1134.296631 778.766418,1135.718018 776.812927,1136.837524 
	C744.271912,1155.484619 711.705750,1174.088013 679.153687,1192.715942 
	C671.234619,1197.247681 663.184753,1201.579956 655.501892,1206.484741 
	C650.799561,1209.486572 647.094604,1208.279419 643.468872,1205.191284 
	C634.101929,1197.212646 624.377319,1189.583740 615.610474,1180.984253 
	C588.364563,1154.258423 566.019531,1123.770508 548.232788,1090.022461 
	C534.210388,1063.416870 522.520081,1035.765625 515.678284,1006.426758 
	C511.582703,988.864075 509.200409,970.894226 506.280243,953.069336 
	C505.288757,947.017273 505.008209,940.848755 504.348877,934.263428 
z"/>
<path fill="#66D9FF" opacity="1.000000" stroke="none" 
	d="
M772.624146,1210.588257 
	C824.542053,1181.584717 876.179932,1152.831421 927.764954,1123.983887 
	C963.179321,1104.179199 998.495239,1084.198730 1033.900024,1064.376831 
	C1083.745361,1036.470337 1133.665894,1008.697876 1183.490356,980.753967 
	C1220.315063,960.100830 1257.033081,939.257568 1293.818115,918.533630 
	C1295.776001,917.430603 1297.914551,916.648254 1300.496704,915.477295 
	C1300.620605,917.584656 1300.776855,919.009460 1300.777588,920.434387 
	C1300.799805,968.589905 1300.728638,1016.745789 1300.933594,1064.900513 
	C1300.955078,1069.955200 1299.176392,1072.660400 1294.916504,1075.052612 
	C1253.697388,1098.199951 1212.557007,1121.487915 1171.436401,1144.810059 
	C1139.241577,1163.069824 1107.082764,1181.393188 1074.950439,1199.762817 
	C1034.179688,1223.071167 993.444519,1246.441650 952.707947,1269.809814 
	C916.878113,1290.363525 881.094910,1310.998413 845.241089,1331.510010 
	C807.813721,1352.921509 770.490173,1374.522827 732.806274,1395.474731 
	C708.874084,1408.780884 683.155701,1417.518188 656.009827,1421.699951 
	C636.080811,1424.769775 616.066833,1426.866577 595.888428,1424.768433 
	C564.749939,1421.530762 535.586121,1413.002686 512.117920,1390.970581 
	C497.663452,1377.400757 487.767883,1360.859131 483.093170,1341.425903 
	C474.218781,1304.534180 482.799377,1270.451538 500.043091,1237.856445 
	C504.101990,1230.183960 508.784912,1222.841553 513.916016,1214.093872 
	C514.970581,1221.681152 515.529602,1227.699585 516.675476,1233.604004 
	C521.825256,1260.140625 537.287598,1277.667480 563.307251,1285.180298 
	C589.975220,1292.880249 616.480286,1290.229126 641.705200,1279.917480 
	C661.064148,1272.003784 679.617065,1261.979858 698.097046,1252.088379 
	C723.055054,1238.729492 747.599609,1224.598267 772.624146,1210.588257 
z"/>
<path fill="#66D9FF" opacity="1.000000" stroke="none" 
	d="
M1295.597412,1239.232666 
	C1297.307983,1238.556152 1298.639404,1238.013428 1300.469727,1237.267456 
	C1300.599976,1239.038086 1300.771729,1240.290527 1300.772705,1241.543091 
	C1300.812744,1293.363525 1300.773804,1345.184082 1300.963867,1397.003906 
	C1300.982544,1402.108032 1299.387329,1404.868164 1294.822876,1407.454590 
	C1259.357910,1427.551270 1224.118530,1448.045410 1188.754028,1468.320068 
	C1154.656860,1487.868286 1120.419800,1507.173950 1086.428223,1526.903564 
	C1080.381348,1530.413330 1075.902466,1529.103638 1070.494263,1525.884521 
	C1040.736328,1508.170166 1010.797852,1490.759399 980.958984,1473.180542 
	C939.006470,1448.465210 897.086487,1423.694702 855.159119,1398.936768 
	C854.475952,1398.533325 853.875793,1397.989746 852.575623,1397.016479 
	C855.725647,1394.946289 858.473389,1392.960449 861.385010,1391.254272 
	C902.557068,1367.126831 943.843140,1343.191528 984.859619,1318.802856 
	C992.626709,1314.184570 998.417908,1313.469482 1006.446411,1319.034180 
	C1027.987305,1333.964111 1050.353149,1347.702026 1072.339844,1361.992432 
	C1075.874512,1364.289673 1078.591553,1364.804565 1082.792480,1362.348145 
	C1127.815063,1336.023193 1173.041260,1310.046875 1218.198975,1283.953125 
	C1243.883911,1269.111450 1269.545898,1254.229858 1295.597412,1239.232666 
z"/>
<path fill="#66D9FF" opacity="1.000000" stroke="none" 
	d="
M1401.216797,1341.281738 
	C1401.150146,1234.017944 1401.111816,1127.222778 1401.037354,1020.427551 
	C1400.984253,944.288147 1400.931763,868.148621 1400.691284,792.009766 
	C1400.675537,787.022400 1402.276001,785.930664 1406.933350,785.952698 
	C1448.417847,786.149475 1489.903687,786.113281 1531.389038,786.189758 
	C1534.352417,786.195190 1537.315308,786.548218 1540.832886,786.775452 
	C1540.832886,788.982117 1540.832642,790.772644 1540.832764,792.563110 
	C1540.844482,948.512146 1540.839966,1104.461182 1540.951416,1260.410278 
	C1540.954590,1264.858276 1539.293701,1267.207275 1535.539185,1269.379639 
	C1514.593384,1281.499390 1493.798340,1293.880005 1472.969727,1306.202026 
	C1450.864502,1319.279541 1428.787842,1332.405029 1406.678101,1345.474731 
	C1402.769043,1347.785645 1401.785156,1347.065063 1401.216797,1341.281738 
z"/>
<path fill="#1AE65C" opacity="1.000000" stroke="none" 
	d="
M1503.489868,697.774536 
	C1463.841309,718.054016 1415.071533,698.953674 1400.231079,657.335876 
	C1385.145630,615.030457 1409.704346,571.765991 1448.495972,561.625793 
	C1489.523315,550.901306 1526.378052,571.854797 1538.361938,608.732605 
	C1549.468262,642.909607 1537.160278,678.831177 1503.489868,697.774536 
z"/>
</svg>